<mxfile host="app.diagrams.net" modified="2023-06-28T20:17:40.934Z" agent="Mozilla/5.0 (Windows NT 10.0; Win64; x64) AppleWebKit/537.36 (KHTML, like Gecko) Chrome/114.0.0.0 Safari/537.36" etag="yCBBVzoCcpHvG__iGxMB" version="21.4.0">
  <diagram name="Page-1" id="2YBvvXClWsGukQMizWep">
    <mxGraphModel dx="2284" dy="888" grid="1" gridSize="10" guides="1" tooltips="1" connect="1" arrows="1" fold="1" page="1" pageScale="1" pageWidth="850" pageHeight="1100" math="0" shadow="0">
      <root>
        <mxCell id="0" />
        <mxCell id="1" parent="0" />
        <mxCell id="8cJoLweVhxQouU0fmZG0-22" value="&quot;/play&quot;" style="html=1;verticalAlign=bottom;endArrow=open;dashed=1;endSize=8;edgeStyle=elbowEdgeStyle;elbow=vertical;curved=0;rounded=0;" parent="1" source="8cJoLweVhxQouU0fmZG0-24" target="8cJoLweVhxQouU0fmZG0-23" edge="1">
          <mxGeometry x="0.1" relative="1" as="geometry">
            <mxPoint x="65" y="510" as="targetPoint" />
            <Array as="points">
              <mxPoint x="270" y="580" />
              <mxPoint x="210" y="530" />
              <mxPoint x="150" y="550" />
              <mxPoint x="430" y="510" />
            </Array>
            <mxPoint x="420" y="510" as="sourcePoint" />
            <mxPoint as="offset" />
          </mxGeometry>
        </mxCell>
        <mxCell id="aM9ryv3xv72pqoxQDRHE-1" value="ClientAppSocket" style="shape=umlLifeline;perimeter=lifelinePerimeter;whiteSpace=wrap;html=1;container=0;dropTarget=0;collapsible=0;recursiveResize=0;outlineConnect=0;portConstraint=eastwest;newEdgeStyle={&quot;edgeStyle&quot;:&quot;elbowEdgeStyle&quot;,&quot;elbow&quot;:&quot;vertical&quot;,&quot;curved&quot;:0,&quot;rounded&quot;:0};" parent="1" vertex="1">
          <mxGeometry y="30" width="100" height="830" as="geometry" />
        </mxCell>
        <mxCell id="aM9ryv3xv72pqoxQDRHE-2" value="" style="html=1;points=[];perimeter=orthogonalPerimeter;outlineConnect=0;targetShapes=umlLifeline;portConstraint=eastwest;newEdgeStyle={&quot;edgeStyle&quot;:&quot;elbowEdgeStyle&quot;,&quot;elbow&quot;:&quot;vertical&quot;,&quot;curved&quot;:0,&quot;rounded&quot;:0};" parent="aM9ryv3xv72pqoxQDRHE-1" vertex="1">
          <mxGeometry x="45" y="80" width="10" height="720" as="geometry" />
        </mxCell>
        <mxCell id="aM9ryv3xv72pqoxQDRHE-3" value="excecute()" style="html=1;verticalAlign=bottom;startArrow=oval;endArrow=block;startSize=8;edgeStyle=elbowEdgeStyle;elbow=vertical;curved=0;rounded=0;" parent="aM9ryv3xv72pqoxQDRHE-1" target="aM9ryv3xv72pqoxQDRHE-2" edge="1">
          <mxGeometry relative="1" as="geometry">
            <mxPoint x="-70" y="80" as="sourcePoint" />
            <Array as="points">
              <mxPoint x="-30" y="80" />
            </Array>
          </mxGeometry>
        </mxCell>
        <mxCell id="aM9ryv3xv72pqoxQDRHE-4" value="" style="html=1;points=[];perimeter=orthogonalPerimeter;outlineConnect=0;targetShapes=umlLifeline;portConstraint=eastwest;newEdgeStyle={&quot;edgeStyle&quot;:&quot;elbowEdgeStyle&quot;,&quot;elbow&quot;:&quot;vertical&quot;,&quot;curved&quot;:0,&quot;rounded&quot;:0};" parent="aM9ryv3xv72pqoxQDRHE-1" vertex="1">
          <mxGeometry x="50" y="120" width="10" height="210" as="geometry" />
        </mxCell>
        <mxCell id="8cJoLweVhxQouU0fmZG0-16" value="" style="html=1;points=[];perimeter=orthogonalPerimeter;outlineConnect=0;targetShapes=umlLifeline;portConstraint=eastwest;newEdgeStyle={&quot;edgeStyle&quot;:&quot;elbowEdgeStyle&quot;,&quot;elbow&quot;:&quot;vertical&quot;,&quot;curved&quot;:0,&quot;rounded&quot;:0};" parent="aM9ryv3xv72pqoxQDRHE-1" vertex="1">
          <mxGeometry x="50" y="340" width="10" height="110" as="geometry" />
        </mxCell>
        <mxCell id="8cJoLweVhxQouU0fmZG0-23" value="" style="html=1;points=[];perimeter=orthogonalPerimeter;outlineConnect=0;targetShapes=umlLifeline;portConstraint=eastwest;newEdgeStyle={&quot;edgeStyle&quot;:&quot;elbowEdgeStyle&quot;,&quot;elbow&quot;:&quot;vertical&quot;,&quot;curved&quot;:0,&quot;rounded&quot;:0};" parent="aM9ryv3xv72pqoxQDRHE-1" vertex="1">
          <mxGeometry x="50" y="455" width="10" height="255" as="geometry" />
        </mxCell>
        <mxCell id="aM9ryv3xv72pqoxQDRHE-5" value="ClientHandler" style="shape=umlLifeline;perimeter=lifelinePerimeter;whiteSpace=wrap;html=1;container=0;dropTarget=0;collapsible=0;recursiveResize=0;outlineConnect=0;portConstraint=eastwest;newEdgeStyle={&quot;edgeStyle&quot;:&quot;elbowEdgeStyle&quot;,&quot;elbow&quot;:&quot;vertical&quot;,&quot;curved&quot;:0,&quot;rounded&quot;:0};" parent="1" vertex="1">
          <mxGeometry x="380" y="30" width="100" height="820" as="geometry" />
        </mxCell>
        <mxCell id="aM9ryv3xv72pqoxQDRHE-6" value="" style="html=1;points=[];perimeter=orthogonalPerimeter;outlineConnect=0;targetShapes=umlLifeline;portConstraint=eastwest;newEdgeStyle={&quot;edgeStyle&quot;:&quot;elbowEdgeStyle&quot;,&quot;elbow&quot;:&quot;vertical&quot;,&quot;curved&quot;:0,&quot;rounded&quot;:0};" parent="aM9ryv3xv72pqoxQDRHE-5" vertex="1">
          <mxGeometry x="45" y="80" width="10" height="720" as="geometry" />
        </mxCell>
        <mxCell id="8cJoLweVhxQouU0fmZG0-4" value="" style="html=1;points=[];perimeter=orthogonalPerimeter;outlineConnect=0;targetShapes=umlLifeline;portConstraint=eastwest;newEdgeStyle={&quot;edgeStyle&quot;:&quot;elbowEdgeStyle&quot;,&quot;elbow&quot;:&quot;vertical&quot;,&quot;curved&quot;:0,&quot;rounded&quot;:0};" parent="aM9ryv3xv72pqoxQDRHE-5" vertex="1">
          <mxGeometry x="40" y="125" width="10" height="215" as="geometry" />
        </mxCell>
        <mxCell id="8cJoLweVhxQouU0fmZG0-15" value="" style="html=1;points=[];perimeter=orthogonalPerimeter;outlineConnect=0;targetShapes=umlLifeline;portConstraint=eastwest;newEdgeStyle={&quot;edgeStyle&quot;:&quot;elbowEdgeStyle&quot;,&quot;elbow&quot;:&quot;vertical&quot;,&quot;curved&quot;:0,&quot;rounded&quot;:0};" parent="aM9ryv3xv72pqoxQDRHE-5" vertex="1">
          <mxGeometry x="40" y="355" width="10" height="105" as="geometry" />
        </mxCell>
        <mxCell id="8cJoLweVhxQouU0fmZG0-24" value="" style="html=1;points=[];perimeter=orthogonalPerimeter;outlineConnect=0;targetShapes=umlLifeline;portConstraint=eastwest;newEdgeStyle={&quot;edgeStyle&quot;:&quot;elbowEdgeStyle&quot;,&quot;elbow&quot;:&quot;vertical&quot;,&quot;curved&quot;:0,&quot;rounded&quot;:0};" parent="aM9ryv3xv72pqoxQDRHE-5" vertex="1">
          <mxGeometry x="40" y="468" width="10" height="242" as="geometry" />
        </mxCell>
        <mxCell id="aM9ryv3xv72pqoxQDRHE-7" value="new Socket()" style="html=1;verticalAlign=bottom;endArrow=block;edgeStyle=elbowEdgeStyle;elbow=vertical;curved=0;rounded=0;" parent="1" source="aM9ryv3xv72pqoxQDRHE-2" target="aM9ryv3xv72pqoxQDRHE-6" edge="1">
          <mxGeometry relative="1" as="geometry">
            <mxPoint x="195" y="130" as="sourcePoint" />
            <Array as="points">
              <mxPoint x="180" y="120" />
            </Array>
            <mxPoint as="offset" />
          </mxGeometry>
        </mxCell>
        <mxCell id="aM9ryv3xv72pqoxQDRHE-10" value="&quot;nickname&quot;&amp;nbsp;" style="html=1;verticalAlign=bottom;endArrow=open;dashed=1;endSize=8;edgeStyle=elbowEdgeStyle;elbow=vertical;curved=0;rounded=0;" parent="1" source="aM9ryv3xv72pqoxQDRHE-4" edge="1">
          <mxGeometry x="0.0044" relative="1" as="geometry">
            <mxPoint x="420" y="230" as="targetPoint" />
            <Array as="points">
              <mxPoint x="180" y="230" />
            </Array>
            <mxPoint as="offset" />
          </mxGeometry>
        </mxCell>
        <mxCell id="8cJoLweVhxQouU0fmZG0-1" value="Controller" style="shape=umlLifeline;perimeter=lifelinePerimeter;whiteSpace=wrap;html=1;container=0;dropTarget=0;collapsible=0;recursiveResize=0;outlineConnect=0;portConstraint=eastwest;newEdgeStyle={&quot;edgeStyle&quot;:&quot;elbowEdgeStyle&quot;,&quot;elbow&quot;:&quot;vertical&quot;,&quot;curved&quot;:0,&quot;rounded&quot;:0};" parent="1" vertex="1">
          <mxGeometry x="670" y="30" width="100" height="780" as="geometry" />
        </mxCell>
        <mxCell id="8cJoLweVhxQouU0fmZG0-2" value="" style="html=1;points=[];perimeter=orthogonalPerimeter;outlineConnect=0;targetShapes=umlLifeline;portConstraint=eastwest;newEdgeStyle={&quot;edgeStyle&quot;:&quot;elbowEdgeStyle&quot;,&quot;elbow&quot;:&quot;vertical&quot;,&quot;curved&quot;:0,&quot;rounded&quot;:0};" parent="8cJoLweVhxQouU0fmZG0-1" vertex="1">
          <mxGeometry x="45" y="80" width="10" height="680" as="geometry" />
        </mxCell>
        <mxCell id="8cJoLweVhxQouU0fmZG0-3" value="&quot;start&quot;" style="html=1;verticalAlign=bottom;endArrow=open;dashed=1;endSize=8;edgeStyle=elbowEdgeStyle;elbow=vertical;curved=0;rounded=0;" parent="1" target="aM9ryv3xv72pqoxQDRHE-4" edge="1">
          <mxGeometry relative="1" as="geometry">
            <mxPoint x="100" y="160" as="targetPoint" />
            <Array as="points">
              <mxPoint x="195" y="160" />
            </Array>
            <mxPoint x="420" y="160" as="sourcePoint" />
          </mxGeometry>
        </mxCell>
        <mxCell id="8cJoLweVhxQouU0fmZG0-5" value="Lobby" style="shape=umlLifeline;perimeter=lifelinePerimeter;whiteSpace=wrap;html=1;container=0;dropTarget=0;collapsible=0;recursiveResize=0;outlineConnect=0;portConstraint=eastwest;newEdgeStyle={&quot;edgeStyle&quot;:&quot;elbowEdgeStyle&quot;,&quot;elbow&quot;:&quot;vertical&quot;,&quot;curved&quot;:0,&quot;rounded&quot;:0};" parent="1" vertex="1">
          <mxGeometry x="520" y="30" width="100" height="780" as="geometry" />
        </mxCell>
        <mxCell id="8cJoLweVhxQouU0fmZG0-6" value="" style="html=1;points=[];perimeter=orthogonalPerimeter;outlineConnect=0;targetShapes=umlLifeline;portConstraint=eastwest;newEdgeStyle={&quot;edgeStyle&quot;:&quot;elbowEdgeStyle&quot;,&quot;elbow&quot;:&quot;vertical&quot;,&quot;curved&quot;:0,&quot;rounded&quot;:0};" parent="8cJoLweVhxQouU0fmZG0-5" vertex="1">
          <mxGeometry x="45" y="80" width="10" height="680" as="geometry" />
        </mxCell>
        <mxCell id="8cJoLweVhxQouU0fmZG0-7" value="nicknameChecker()" style="html=1;verticalAlign=bottom;endArrow=block;edgeStyle=elbowEdgeStyle;elbow=vertical;curved=0;rounded=0;" parent="1" target="8cJoLweVhxQouU0fmZG0-6" edge="1">
          <mxGeometry x="0.3953" y="10" relative="1" as="geometry">
            <mxPoint x="430" y="170" as="sourcePoint" />
            <Array as="points">
              <mxPoint x="480" y="250" />
              <mxPoint x="460" y="300" />
              <mxPoint x="480" y="170" />
              <mxPoint x="550" y="170" />
            </Array>
            <mxPoint x="795" y="170" as="targetPoint" />
            <mxPoint as="offset" />
          </mxGeometry>
        </mxCell>
        <mxCell id="8cJoLweVhxQouU0fmZG0-8" value="nicknameChecker()" style="html=1;verticalAlign=bottom;endArrow=block;edgeStyle=elbowEdgeStyle;elbow=vertical;curved=0;rounded=0;" parent="1" target="8cJoLweVhxQouU0fmZG0-6" edge="1">
          <mxGeometry x="0.4468" relative="1" as="geometry">
            <mxPoint x="430" y="230" as="sourcePoint" />
            <Array as="points">
              <mxPoint x="470" y="330" />
              <mxPoint x="480" y="320" />
              <mxPoint x="480" y="360" />
            </Array>
            <mxPoint x="560" y="230" as="targetPoint" />
            <mxPoint as="offset" />
          </mxGeometry>
        </mxCell>
        <mxCell id="8cJoLweVhxQouU0fmZG0-9" value="&quot;nickname&quot;&amp;nbsp;" style="html=1;verticalAlign=bottom;endArrow=open;dashed=1;endSize=8;edgeStyle=elbowEdgeStyle;elbow=vertical;curved=0;rounded=0;" parent="1" edge="1">
          <mxGeometry x="-0.0556" relative="1" as="geometry">
            <mxPoint x="420" y="320" as="targetPoint" />
            <Array as="points">
              <mxPoint x="180" y="320" />
            </Array>
            <mxPoint x="60" y="320" as="sourcePoint" />
            <mxPoint as="offset" />
          </mxGeometry>
        </mxCell>
        <mxCell id="8cJoLweVhxQouU0fmZG0-10" value="&quot;/nickname&quot;&amp;nbsp;" style="html=1;verticalAlign=bottom;endArrow=open;dashed=1;endSize=8;edgeStyle=elbowEdgeStyle;elbow=vertical;curved=0;rounded=0;" parent="1" edge="1">
          <mxGeometry x="0.3469" relative="1" as="geometry">
            <mxPoint x="60" y="300" as="targetPoint" />
            <Array as="points">
              <mxPoint x="420" y="300" />
            </Array>
            <mxPoint x="230" y="300" as="sourcePoint" />
            <mxPoint as="offset" />
          </mxGeometry>
        </mxCell>
        <mxCell id="8cJoLweVhxQouU0fmZG0-11" value="return boolean" style="html=1;verticalAlign=bottom;endArrow=open;dashed=1;endSize=8;edgeStyle=elbowEdgeStyle;elbow=vertical;curved=0;rounded=0;" parent="1" edge="1">
          <mxGeometry x="0.0044" relative="1" as="geometry">
            <mxPoint x="430" y="274.6" as="targetPoint" />
            <Array as="points">
              <mxPoint x="520" y="274.6" />
              <mxPoint x="190" y="244.6" />
            </Array>
            <mxPoint x="565" y="274.6" as="sourcePoint" />
            <mxPoint as="offset" />
          </mxGeometry>
        </mxCell>
        <mxCell id="8cJoLweVhxQouU0fmZG0-12" value="loop" style="shape=umlFrame;whiteSpace=wrap;html=1;pointerEvents=0;" parent="1" vertex="1">
          <mxGeometry x="-70" y="280" width="670" height="80" as="geometry" />
        </mxCell>
        <mxCell id="8cJoLweVhxQouU0fmZG0-13" value="return boolean" style="html=1;verticalAlign=bottom;endArrow=open;dashed=1;endSize=8;edgeStyle=elbowEdgeStyle;elbow=vertical;curved=0;rounded=0;" parent="1" edge="1">
          <mxGeometry x="0.1111" relative="1" as="geometry">
            <mxPoint x="430" y="350" as="targetPoint" />
            <Array as="points">
              <mxPoint x="520" y="350" />
              <mxPoint x="190" y="320" />
            </Array>
            <mxPoint x="565" y="350" as="sourcePoint" />
            <mxPoint as="offset" />
          </mxGeometry>
        </mxCell>
        <mxCell id="8cJoLweVhxQouU0fmZG0-14" value="[until return == true]" style="text;html=1;align=center;verticalAlign=middle;resizable=0;points=[];autosize=1;strokeColor=none;fillColor=none;" parent="1" vertex="1">
          <mxGeometry x="-80" y="305" width="130" height="30" as="geometry" />
        </mxCell>
        <mxCell id="8cJoLweVhxQouU0fmZG0-17" value="&quot;/wait&quot;" style="html=1;verticalAlign=bottom;endArrow=open;dashed=1;endSize=8;edgeStyle=elbowEdgeStyle;elbow=vertical;curved=0;rounded=0;" parent="1" edge="1">
          <mxGeometry x="0.3469" relative="1" as="geometry">
            <mxPoint x="60" y="400" as="targetPoint" />
            <Array as="points">
              <mxPoint x="420" y="400" />
            </Array>
            <mxPoint x="230" y="400" as="sourcePoint" />
            <mxPoint as="offset" />
          </mxGeometry>
        </mxCell>
        <mxCell id="8cJoLweVhxQouU0fmZG0-18" value="loop" style="shape=umlFrame;whiteSpace=wrap;html=1;pointerEvents=0;" parent="1" vertex="1">
          <mxGeometry x="-90" y="410" width="690" height="70" as="geometry" />
        </mxCell>
        <mxCell id="8cJoLweVhxQouU0fmZG0-19" value="[until ClientApp&lt;br&gt;Socket sends &quot;/start&quot;]" style="text;html=1;align=center;verticalAlign=middle;resizable=0;points=[];autosize=1;strokeColor=none;fillColor=none;" parent="1" vertex="1">
          <mxGeometry x="-85" y="440" width="140" height="40" as="geometry" />
        </mxCell>
        <mxCell id="8cJoLweVhxQouU0fmZG0-20" value="&quot;/start&quot;, &quot;/firstGame&quot;, &quot;/notFirstGame&quot;, &quot;/set&quot;" style="html=1;verticalAlign=bottom;endArrow=open;dashed=1;endSize=8;edgeStyle=elbowEdgeStyle;elbow=vertical;curved=0;rounded=0;" parent="1" source="8cJoLweVhxQouU0fmZG0-16" target="8cJoLweVhxQouU0fmZG0-15" edge="1">
          <mxGeometry relative="1" as="geometry">
            <mxPoint x="340" y="590" as="targetPoint" />
            <Array as="points">
              <mxPoint x="240" y="430" />
            </Array>
            <mxPoint x="235" y="440" as="sourcePoint" />
            <mxPoint as="offset" />
          </mxGeometry>
        </mxCell>
        <mxCell id="8cJoLweVhxQouU0fmZG0-21" value="&quot;/wait&quot;" style="html=1;verticalAlign=bottom;endArrow=open;dashed=1;endSize=8;edgeStyle=elbowEdgeStyle;elbow=vertical;curved=0;rounded=0;" parent="1" edge="1">
          <mxGeometry x="0.3469" relative="1" as="geometry">
            <mxPoint x="60" y="449.6" as="targetPoint" />
            <Array as="points">
              <mxPoint x="420" y="449.6" />
            </Array>
            <mxPoint x="230" y="449.6" as="sourcePoint" />
            <mxPoint as="offset" />
          </mxGeometry>
        </mxCell>
        <mxCell id="8cJoLweVhxQouU0fmZG0-26" value="loop" style="shape=umlFrame;whiteSpace=wrap;html=1;pointerEvents=0;" parent="1" vertex="1">
          <mxGeometry x="-90" y="560" width="840" height="170" as="geometry" />
        </mxCell>
        <mxCell id="8cJoLweVhxQouU0fmZG0-27" value="&quot;/remove&quot;, &quot;/add&quot;, &quot;/switch&quot;" style="html=1;verticalAlign=bottom;endArrow=open;dashed=1;endSize=8;edgeStyle=elbowEdgeStyle;elbow=vertical;curved=0;rounded=0;" parent="1" edge="1">
          <mxGeometry relative="1" as="geometry">
            <mxPoint x="420" y="610" as="targetPoint" />
            <Array as="points">
              <mxPoint x="240" y="610" />
            </Array>
            <mxPoint x="60" y="610" as="sourcePoint" />
            <mxPoint as="offset" />
          </mxGeometry>
        </mxCell>
        <mxCell id="8cJoLweVhxQouU0fmZG0-28" value="newGameController()" style="html=1;verticalAlign=bottom;endArrow=block;edgeStyle=elbowEdgeStyle;elbow=vertical;curved=0;rounded=0;" parent="1" source="8cJoLweVhxQouU0fmZG0-6" target="8cJoLweVhxQouU0fmZG0-2" edge="1">
          <mxGeometry x="-0.0743" relative="1" as="geometry">
            <mxPoint x="580" y="500" as="sourcePoint" />
            <Array as="points">
              <mxPoint x="600" y="540" />
              <mxPoint x="650" y="510" />
              <mxPoint x="620" y="500" />
              <mxPoint x="630" y="490" />
              <mxPoint x="630" y="530" />
            </Array>
            <mxPoint x="715" y="500" as="targetPoint" />
            <mxPoint as="offset" />
          </mxGeometry>
        </mxCell>
        <mxCell id="8cJoLweVhxQouU0fmZG0-29" value="startGame()" style="html=1;verticalAlign=bottom;endArrow=block;edgeStyle=elbowEdgeStyle;elbow=vertical;curved=0;rounded=0;" parent="1" source="8cJoLweVhxQouU0fmZG0-24" target="8cJoLweVhxQouU0fmZG0-6" edge="1">
          <mxGeometry x="-0.0714" relative="1" as="geometry">
            <mxPoint x="425" y="530" as="sourcePoint" />
            <Array as="points">
              <mxPoint x="450" y="530" />
              <mxPoint x="500" y="500" />
              <mxPoint x="470" y="490" />
              <mxPoint x="480" y="480" />
              <mxPoint x="480" y="520" />
            </Array>
            <mxPoint x="565" y="530" as="targetPoint" />
            <mxPoint as="offset" />
          </mxGeometry>
        </mxCell>
        <mxCell id="8cJoLweVhxQouU0fmZG0-30" value="&quot;/remove&quot;, &quot;/add&quot;, &quot;/switch&quot;" style="html=1;verticalAlign=bottom;endArrow=open;dashed=1;endSize=8;edgeStyle=elbowEdgeStyle;elbow=vertical;curved=0;rounded=0;" parent="1" target="8cJoLweVhxQouU0fmZG0-2" edge="1">
          <mxGeometry relative="1" as="geometry">
            <mxPoint x="790" y="630" as="targetPoint" />
            <Array as="points">
              <mxPoint x="610" y="630" />
            </Array>
            <mxPoint x="430" y="630" as="sourcePoint" />
            <mxPoint as="offset" />
          </mxGeometry>
        </mxCell>
        <mxCell id="8cJoLweVhxQouU0fmZG0-31" value="serverUpdate()" style="html=1;verticalAlign=bottom;endArrow=block;edgeStyle=elbowEdgeStyle;elbow=vertical;curved=0;rounded=0;" parent="1" source="8cJoLweVhxQouU0fmZG0-2" target="8cJoLweVhxQouU0fmZG0-6" edge="1">
          <mxGeometry x="0.0057" relative="1" as="geometry">
            <mxPoint x="730" y="680" as="sourcePoint" />
            <Array as="points">
              <mxPoint x="645" y="670" />
              <mxPoint x="645" y="630" />
              <mxPoint x="635" y="640" />
              <mxPoint x="665" y="650" />
              <mxPoint x="615" y="680" />
            </Array>
            <mxPoint x="590" y="680" as="targetPoint" />
            <mxPoint as="offset" />
          </mxGeometry>
        </mxCell>
        <mxCell id="8cJoLweVhxQouU0fmZG0-32" value="update()" style="html=1;verticalAlign=bottom;endArrow=block;edgeStyle=elbowEdgeStyle;elbow=vertical;curved=0;rounded=0;" parent="1" source="8cJoLweVhxQouU0fmZG0-6" target="8cJoLweVhxQouU0fmZG0-24" edge="1">
          <mxGeometry x="-0.0044" relative="1" as="geometry">
            <mxPoint x="580" y="700" as="sourcePoint" />
            <Array as="points">
              <mxPoint x="480" y="690" />
              <mxPoint x="510" y="700" />
              <mxPoint x="510" y="660" />
              <mxPoint x="500" y="670" />
              <mxPoint x="530" y="680" />
              <mxPoint x="480" y="710" />
            </Array>
            <mxPoint x="440" y="700" as="targetPoint" />
            <mxPoint as="offset" />
          </mxGeometry>
        </mxCell>
        <mxCell id="8cJoLweVhxQouU0fmZG0-34" value="&quot;/update&quot;" style="html=1;verticalAlign=bottom;endArrow=open;dashed=1;endSize=8;edgeStyle=elbowEdgeStyle;elbow=vertical;curved=0;rounded=0;" parent="1" edge="1">
          <mxGeometry x="0.1" relative="1" as="geometry">
            <mxPoint x="60" y="700" as="targetPoint" />
            <Array as="points">
              <mxPoint x="270" y="700" />
              <mxPoint x="210" y="650" />
              <mxPoint x="150" y="670" />
              <mxPoint x="430" y="630" />
            </Array>
            <mxPoint x="420" y="700" as="sourcePoint" />
            <mxPoint as="offset" />
          </mxGeometry>
        </mxCell>
        <mxCell id="8cJoLweVhxQouU0fmZG0-35" value="boardView" style="html=1;verticalAlign=bottom;endArrow=open;dashed=1;endSize=8;edgeStyle=elbowEdgeStyle;elbow=vertical;curved=0;rounded=0;" parent="1" source="8cJoLweVhxQouU0fmZG0-24" target="8cJoLweVhxQouU0fmZG0-23" edge="1">
          <mxGeometry x="0.1022" relative="1" as="geometry">
            <mxPoint x="65" y="720" as="targetPoint" />
            <Array as="points">
              <mxPoint x="275" y="720" />
              <mxPoint x="215" y="670" />
              <mxPoint x="155" y="690" />
              <mxPoint x="435" y="650" />
            </Array>
            <mxPoint x="425" y="720" as="sourcePoint" />
            <mxPoint as="offset" />
          </mxGeometry>
        </mxCell>
        <mxCell id="8cJoLweVhxQouU0fmZG0-36" value="[untill all players are&lt;br&gt;done]" style="text;html=1;align=center;verticalAlign=middle;resizable=0;points=[];autosize=1;strokeColor=none;fillColor=none;" parent="1" vertex="1">
          <mxGeometry x="-80" y="590" width="130" height="40" as="geometry" />
        </mxCell>
        <mxCell id="8cJoLweVhxQouU0fmZG0-37" value="endMatch()" style="html=1;verticalAlign=bottom;endArrow=block;edgeStyle=elbowEdgeStyle;elbow=vertical;curved=0;rounded=0;" parent="1" source="8cJoLweVhxQouU0fmZG0-2" target="8cJoLweVhxQouU0fmZG0-6" edge="1">
          <mxGeometry x="0.0057" relative="1" as="geometry">
            <mxPoint x="710" y="760" as="sourcePoint" />
            <Array as="points">
              <mxPoint x="640" y="760" />
              <mxPoint x="640" y="720" />
              <mxPoint x="630" y="730" />
              <mxPoint x="660" y="740" />
              <mxPoint x="610" y="770" />
            </Array>
            <mxPoint x="570" y="760" as="targetPoint" />
            <mxPoint as="offset" />
          </mxGeometry>
        </mxCell>
        <mxCell id="8cJoLweVhxQouU0fmZG0-38" value="endMatch()" style="html=1;verticalAlign=bottom;endArrow=block;edgeStyle=elbowEdgeStyle;elbow=vertical;curved=0;rounded=0;" parent="1" source="8cJoLweVhxQouU0fmZG0-6" target="aM9ryv3xv72pqoxQDRHE-6" edge="1">
          <mxGeometry x="-0.0031" relative="1" as="geometry">
            <mxPoint x="575" y="700" as="sourcePoint" />
            <Array as="points">
              <mxPoint x="520" y="770" />
              <mxPoint x="560" y="760" />
              <mxPoint x="520" y="710" />
              <mxPoint x="520" y="670" />
              <mxPoint x="510" y="680" />
              <mxPoint x="540" y="690" />
              <mxPoint x="490" y="720" />
            </Array>
            <mxPoint x="440" y="700" as="targetPoint" />
            <mxPoint as="offset" />
          </mxGeometry>
        </mxCell>
        <mxCell id="8cJoLweVhxQouU0fmZG0-39" value="&quot;/end&quot;" style="html=1;verticalAlign=bottom;endArrow=open;dashed=1;endSize=8;edgeStyle=elbowEdgeStyle;elbow=vertical;curved=0;rounded=0;" parent="1" target="aM9ryv3xv72pqoxQDRHE-2" edge="1">
          <mxGeometry x="0.1081" relative="1" as="geometry">
            <mxPoint x="65" y="790" as="targetPoint" />
            <Array as="points">
              <mxPoint x="275" y="790" />
              <mxPoint x="215" y="740" />
              <mxPoint x="155" y="760" />
              <mxPoint x="435" y="720" />
            </Array>
            <mxPoint x="425" y="790" as="sourcePoint" />
            <mxPoint as="offset" />
          </mxGeometry>
        </mxCell>
        <mxCell id="8cJoLweVhxQouU0fmZG0-40" value="boardView" style="html=1;verticalAlign=bottom;endArrow=open;dashed=1;endSize=8;edgeStyle=elbowEdgeStyle;elbow=vertical;curved=0;rounded=0;" parent="1" source="aM9ryv3xv72pqoxQDRHE-6" edge="1">
          <mxGeometry x="0.1022" relative="1" as="geometry">
            <mxPoint x="55" y="810" as="targetPoint" />
            <Array as="points">
              <mxPoint x="270" y="810" />
              <mxPoint x="210" y="760" />
              <mxPoint x="150" y="780" />
              <mxPoint x="430" y="740" />
            </Array>
            <mxPoint x="415" y="810" as="sourcePoint" />
            <mxPoint as="offset" />
          </mxGeometry>
        </mxCell>
      </root>
    </mxGraphModel>
  </diagram>
</mxfile>
